<?xml version="1.0" encoding="UTF-8"?>
<svg version="1.1" xmlns="http://www.w3.org/2000/svg" width="200" height="95">
<path d="M0 0 C10.09197111 1.12133012 17.32606211 3.21373913 24 11 C26.90881885 9.66091819 29.1745955 8.11145525 31.625 6.0625 C37.76227102 1.40546132 44.94647037 -0.66063371 52.6484375 -0.34765625 C62.48342123 1.10635297 70.1781588 5.99097413 77 13 C77.42410156 12.54109375 77.84820312 12.0821875 78.28515625 11.609375 C85.68137485 3.87179246 92.78920203 0.65552709 103.4375 -0.3125 C113.0166306 0.52777461 121.67007936 3.99249636 128.046875 11.3671875 C132.78174042 17.8042566 135.12310369 22.9435471 135 31 C125.42082814 31.13900064 115.84200318 31.24562024 106.262043 31.31087303 C101.813656 31.34219098 97.36595874 31.38467083 92.91796875 31.45263672 C88.62556939 31.51781494 84.33383348 31.55370255 80.04097748 31.56926346 C78.40301821 31.5803528 76.76509541 31.60200856 75.12741852 31.63438034 C72.83317037 31.67792812 70.54166504 31.68393553 68.24707031 31.68115234 C66.94135071 31.69447601 65.6356311 31.70779968 64.29034424 31.7215271 C61 31 61 31 58.67205811 28.01992798 C58.12027893 27.02335175 57.56849976 26.02677551 57 25 C53.86128812 23.43064406 51.46144178 23.64798897 48 24 C45.36983839 26.1727422 43.52663106 27.94673788 42 31 C28.14 31 14.28 31 0 31 C0 20.77 0 10.54 0 0 Z " fill="#EB5E2E" transform="translate(49,16)"/>
<path d="M0 0 C24.42 0 48.84 0 74 0 C74.99 2.475 74.99 2.475 76 5 C79.69798008 6.23266003 83.15521703 6.58136839 87 6 C89.43119623 4.12984906 90.64069173 2.71861655 92 0 C106.19 0 120.38 0 135 0 C135 9.9 135 19.8 135 30 C123.660471 30 116.09536384 25.72739275 108 18 C107.46632813 18.53109375 106.93265625 19.0621875 106.3828125 19.609375 C99.06076529 26.55138516 92.70143472 30.11684752 82.5 30.5 C73.07667622 30.16780292 64.78968348 26.63795871 58 20 C58 19.34 58 18.68 58 18 C57.34 18 56.68 18 56 18 C55.75765625 18.59554687 55.5153125 19.19109375 55.265625 19.8046875 C53.75689849 22.42167607 52.27261321 23.48615944 49.75 25.125 C49.00234375 25.62257813 48.2546875 26.12015625 47.484375 26.6328125 C39.6647744 30.93605182 30.78083559 31.32246513 22.1484375 29.34765625 C13.459607 26.21375918 6.57048034 19.99371461 2 12 C0.05941801 7.47197535 0 5.17131882 0 0 Z " fill="#EF602F" transform="translate(17,50)"/>
</svg>
